<svg width="167" height="163" viewBox="0 0 167 163" fill="none" xmlns="http://www.w3.org/2000/svg">
<ellipse cx="83.5" cy="81.5" rx="83.5" ry="81.5" fill="#6D96A6"/>
<path d="M61.1881 113.96C60.0148 113.267 59.2681 112.52 58.9481 111.72C58.6281 110.973 58.4681 110.333 58.4681 109.8C58.4681 108.307 59.0015 106.28 60.0681 103.72C61.1881 101.16 62.6548 98.2533 64.4681 95C66.3348 91.6933 68.3881 88.28 70.6281 84.76C68.6548 84.6 66.9748 84.4933 65.5881 84.44C64.2015 84.3867 63.0015 84.36 61.9881 84.36H59.1881C59.7748 82.8133 60.7881 81.7467 62.2281 81.16C63.7215 80.52 65.4815 80.2 67.5081 80.2C68.4148 80.2 69.3481 80.2533 70.3081 80.36C71.2681 80.4667 72.2548 80.6 73.2681 80.76C75.9881 76.6533 78.7615 72.68 81.5881 68.84C84.4681 64.9467 87.1348 61.5067 89.5881 58.52C92.0948 55.48 94.1748 53.1867 95.8281 51.64C97.3748 50.1467 98.6548 49.4 99.6681 49.4C100.788 49.4 102.201 50.2533 103.908 51.96C103.375 52.3867 102.681 53.5333 101.828 55.4C101.028 57.2133 100.148 59.5067 99.1881 62.28C98.2815 65.0533 97.3748 68.0933 96.4681 71.4C95.5615 74.7067 94.7081 78.0933 93.9081 81.56C93.1615 84.9733 92.5481 88.2267 92.0681 91.32C91.6415 94.4133 91.4281 97.1333 91.4281 99.48C91.4281 101.507 91.6415 103.08 92.0681 104.2C92.5481 105.32 93.3215 105.88 94.3881 105.88C95.7748 105.88 97.3481 104.92 99.1081 103C100.868 101.08 102.788 98.0933 104.868 94.04L105.668 94.84C104.068 99.1067 102.015 102.6 99.5081 105.32C97.0548 108.04 94.4948 109.4 91.8281 109.4C89.6415 109.4 88.0415 108.44 87.0281 106.52C86.0681 104.547 85.5881 101.933 85.5881 98.68C85.5881 95.2667 86.0415 91.2933 86.9481 86.76C84.6015 86.3867 82.4415 86.0933 80.4681 85.88C78.5481 85.6133 76.7615 85.3733 75.1081 85.16C72.6015 89.8 70.1481 94.5733 67.7481 99.48C65.4015 104.387 63.2148 109.213 61.1881 113.96ZM87.5081 83.96C88.3081 80.44 89.2415 76.8933 90.3081 73.32C91.3748 69.6933 92.4948 66.2533 93.6681 63C94.8948 59.7467 96.0415 56.8933 97.1081 54.44C95.4548 55.4533 93.5348 57.2667 91.3481 59.88C89.2148 62.44 86.9481 65.5867 84.5481 69.32C82.1481 73 79.6948 77.0533 77.1881 81.48C79.0015 81.8533 80.7881 82.28 82.5481 82.76C84.3615 83.1867 86.0148 83.5867 87.5081 83.96Z" fill="white"/>
</svg>
